<svg xlink="http://www.w3.org/1999/xlink" viewBox="0 0 5000 5000" xmlns="http://www.w3.org/2000/svg" style="transform: scale(1);"><defs><filter id="goo"><feGaussianBlur in="SourceGraphic" stdDeviation="1.675" result="blur"></feGaussianBlur><feColorMatrix in="blur" type="matrix" values="1 0 0 0 0 0 1 0 0 0 0 0 1 0 0 0 0 0 19 -9" result="good"></feColorMatrix><feComposite in="SourceGraphic" in2="goo" operator="atop"></feComposite></filter><path d="M226,227C237,217 252,215 264,220L256,282L221,266Q201,244 226,227z" id="P0"></path><path d="M258,259L244,260L238,247L256,240L258,259z" id="P1"></path><path d="M250,274C248,262 247,262 241,272C237,253 239,241 250,226L264,231L250,274z" id="P2"></path><path d="M232,243L242,233L269,252L239,265L232,243z" id="P3"></path><path d="M226,234L273,233L279,254Q278,284 246,279L226,234z" id="P4"></path><path d="M241,255L241,245L258,244L259,255L241,255z" id="P5"></path><path d="M277,257C268,275 248,281 232,272L245,222Q268,212 275,238C279,245 279,252 277,257z" id="P6"></path><path d="M256,266L234,245L248,233L265,243L256,266z" id="P7"></path><path d="M273,246C270,267 250,276 232,265Q215,250 231,236Q244,216 264,231Q279,232 273,246z" id="P8"></path><path d="M254,235L265,255L260,262L238,260L254,235z" id="P9"></path><path d="M269,215Q306,228 289,260C261,270 243,271 215,269L211,257Q215,201 269,215z" id="P10"></path><path d="M243,260L250,238L262,251L257,260L243,260z" id="P11"></path><path d="M276,262C258,282 231,277 221,252Q213,227 241,222C256,219 270,226 277,239C280,246 280,254 276,262z" id="P12"></path><path d="M265,239L262,263L233,246L240,235L265,239z" id="P13"></path></defs><rect id="RECT" width="5000" height="5000" fill="#11111100"></rect><g id="group" fill="#FFFFFF" filter="url(#goo)" opacity="0.22"><use x="-174" y="-101" href="#P3"></use><use x="-160" y="-58" href="#P3"></use><use x="-91" y="195" href="#P10"></use><use x="-214" y="333" href="#P10"></use><use x="-142" y="663" href="#P5"></use><use x="-154" y="681" href="#P7"></use><use x="-123" y="1023" href="#P4"></use><use x="-179" y="1076" href="#P10"></use><use x="-106" y="1291" href="#P13"></use><use x="-228" y="1465" href="#P10"></use><use x="-117" y="1632" href="#P3"></use><use x="-124" y="1932" href="#P13"></use><use x="-227" y="2005" href="#P13"></use><use x="-226" y="2152" href="#P2"></use><use x="-76" y="2397" href="#P4"></use><use x="-77" y="2595" href="#P9"></use><use x="-94" y="2729" href="#P12"></use><use x="-230" y="3012" href="#P0"></use><use x="-247" y="3157" href="#P13"></use><use x="-213" y="3255" href="#P8"></use><use x="-185" y="3516" href="#P10"></use><use x="-248" y="3632" href="#P11"></use><use x="-153" y="3869" href="#P7"></use><use x="-226" y="4033" href="#P7"></use><use x="-244" y="4207" href="#P6"></use><use x="-189" y="4336" href="#P9"></use><use x="-165" y="4648" href="#P6"></use><use x="-125" y="4700" href="#P1"></use><use x="-69" y="5005" href="#P6"></use><use x="-193" y="5098" href="#P13"></use><use x="70" y="-180" href="#P13"></use><use x="73" y="94" href="#P12"></use><use x="15" y="231" href="#P7"></use><use x="-5" y="402" href="#P2"></use><use x="-38" y="534" href="#P11"></use><use x="-60" y="776" href="#P9"></use><use x="102" y="1012" href="#P1"></use><use x="-47" y="1111" href="#P10"></use><use x="7" y="1362" href="#P13"></use><use x="-12" y="1560" href="#P1"></use><use x="-18" y="1607" href="#P10"></use><use x="-62" y="1947" href="#P12"></use><use x="-58" y="2124" href="#P1"></use><use x="-13" y="2246" href="#P0"></use><use x="37" y="2376" href="#P0"></use><use x="-65" y="2580" href="#P3"></use><use x="0" y="2749" href="#P9"></use><use x="10" y="2953" href="#P12"></use><use x="27" y="3199" href="#P2"></use><use x="-22" y="3295" href="#P11"></use><use x="-35" y="3509" href="#P6"></use><use x="-34" y="3644" href="#P1"></use><use x="-53" y="3965" href="#P9"></use><use x="-15" y="4078" href="#P6"></use><use x="53" y="4305" href="#P11"></use><use x="-5" y="4358" href="#P1"></use><use x="9" y="4545" href="#P10"></use><use x="56" y="4725" href="#P2"></use><use x="-46" y="4916" href="#P4"></use><use x="104" y="5130" href="#P10"></use><use x="272" y="-182" href="#P12"></use><use x="278" y="-51" href="#P13"></use><use x="235" y="288" href="#P5"></use><use x="271" y="405" href="#P3"></use><use x="224" y="642" href="#P13"></use><use x="172" y="777" href="#P12"></use><use x="173" y="877" href="#P9"></use><use x="211" y="1115" href="#P4"></use><use x="296" y="1219" href="#P13"></use><use x="195" y="1407" href="#P13"></use><use x="188" y="1747" href="#P10"></use><use x="291" y="1944" href="#P0"></use><use x="206" y="2061" href="#P8"></use><use x="285" y="2281" href="#P1"></use><use x="207" y="2382" href="#P7"></use><use x="136" y="2571" href="#P2"></use><use x="131" y="2689" href="#P8"></use><use x="128" y="2926" href="#P11"></use><use x="299" y="3071" href="#P7"></use><use x="191" y="3350" href="#P7"></use><use x="264" y="3595" href="#P10"></use><use x="158" y="3691" href="#P1"></use><use x="159" y="3828" href="#P3"></use><use x="187" y="4131" href="#P13"></use><use x="236" y="4199" href="#P7"></use><use x="291" y="4482" href="#P0"></use><use x="210" y="4694" href="#P2"></use><use x="225" y="4736" href="#P4"></use><use x="266" y="4934" href="#P6"></use><use x="221" y="5140" href="#P0"></use><use x="349" y="-110" href="#P13"></use><use x="366" y="-65" href="#P1"></use><use x="442" y="259" href="#P7"></use><use x="447" y="367" href="#P3"></use><use x="351" y="598" href="#P8"></use><use x="401" y="737" href="#P10"></use><use x="382" y="957" href="#P1"></use><use x="357" y="1112" href="#P8"></use><use x="343" y="1358" href="#P3"></use><use x="425" y="1539" href="#P2"></use><use x="329" y="1600" href="#P11"></use><use x="412" y="1883" href="#P3"></use><use x="475" y="2090" href="#P7"></use><use x="481" y="2248" href="#P11"></use><use x="472" y="2381" href="#P1"></use><use x="431" y="2641" href="#P2"></use><use x="398" y="2745" href="#P11"></use><use x="456" y="2879" href="#P3"></use><use x="409" y="3208" href="#P13"></use><use x="400" y="3258" href="#P3"></use><use x="385" y="3453" href="#P12"></use><use x="432" y="3668" href="#P11"></use><use x="442" y="3894" href="#P6"></use><use x="340" y="4150" href="#P13"></use><use x="412" y="4214" href="#P5"></use><use x="355" y="4495" href="#P3"></use><use x="413" y="4621" href="#P4"></use><use x="432" y="4813" href="#P6"></use><use x="391" y="5014" href="#P11"></use><use x="343" y="5100" href="#P10"></use><use x="641" y="-128" href="#P7"></use><use x="552" y="-15" href="#P8"></use><use x="627" y="210" href="#P10"></use><use x="517" y="435" href="#P11"></use><use x="484" y="664" href="#P4"></use><use x="490" y="735" href="#P13"></use><use x="635" y="1025" href="#P2"></use><use x="522" y="1078" href="#P1"></use><use x="606" y="1283" href="#P0"></use><use x="584" y="1574" href="#P6"></use><use x="552" y="1643" href="#P7"></use><use x="493" y="1804" href="#P0"></use><use x="593" y="2023" href="#P5"></use><use x="617" y="2214" href="#P1"></use><use x="575" y="2451" href="#P12"></use><use x="618" y="2550" href="#P13"></use><use x="546" y="2823" href="#P9"></use><use x="665" y="2910" href="#P5"></use><use x="664" y="3186" href="#P1"></use><use x="491" y="3260" href="#P6"></use><use x="546" y="3551" href="#P9"></use><use x="648" y="3626" href="#P10"></use><use x="657" y="3909" href="#P5"></use><use x="655" y="4116" href="#P7"></use><use x="607" y="4152" href="#P2"></use><use x="486" y="4430" href="#P2"></use><use x="632" y="4615" href="#P8"></use><use x="582" y="4858" href="#P9"></use><use x="527" y="5023" href="#P6"></use><use x="610" y="5082" href="#P2"></use><use x="674" y="-172" href="#P12"></use><use x="819" y="93" href="#P9"></use><use x="844" y="184" href="#P2"></use><use x="669" y="365" href="#P3"></use><use x="760" y="586" href="#P2"></use><use x="745" y="781" href="#P11"></use><use x="757" y="1017" href="#P0"></use><use x="834" y="1182" href="#P4"></use><use x="757" y="1289" href="#P3"></use><use x="734" y="1436" href="#P7"></use><use x="844" y="1712" href="#P6"></use><use x="798" y="1945" href="#P7"></use><use x="791" y="1974" href="#P3"></use><use x="806" y="2209" href="#P8"></use><use x="739" y="2327" href="#P5"></use><use x="704" y="2567" href="#P4"></use><use x="833" y="2722" href="#P8"></use><use x="805" y="2972" href="#P6"></use><use x="845" y="3139" href="#P5"></use><use x="674" y="3242" href="#P10"></use><use x="830" y="3449" href="#P0"></use><use x="781" y="3718" href="#P8"></use><use x="814" y="3794" href="#P1"></use><use x="745" y="4048" href="#P9"></use><use x="821" y="4266" href="#P4"></use><use x="806" y="4377" href="#P1"></use><use x="687" y="4619" href="#P1"></use><use x="790" y="4801" href="#P9"></use><use x="691" y="4936" href="#P10"></use><use x="702" y="5155" href="#P11"></use><use x="978" y="-131" href="#P7"></use><use x="991" y="111" href="#P5"></use><use x="923" y="218" href="#P11"></use><use x="916" y="352" href="#P1"></use><use x="887" y="624" href="#P8"></use><use x="942" y="783" href="#P2"></use><use x="1025" y="1018" href="#P2"></use><use x="984" y="1105" href="#P10"></use><use x="1022" y="1216" href="#P12"></use><use x="949" y="1417" href="#P1"></use><use x="963" y="1722" href="#P8"></use><use x="869" y="1841" href="#P13"></use><use x="898" y="2133" href="#P12"></use><use x="899" y="2203" href="#P11"></use><use x="861" y="2465" href="#P1"></use><use x="967" y="2612" href="#P8"></use><use x="968" y="2729" href="#P1"></use><use x="885" y="2922" href="#P12"></use><use x="989" y="3089" href="#P9"></use><use x="868" y="3397" href="#P7"></use><use x="880" y="3506" href="#P13"></use><use x="936" y="3767" href="#P13"></use><use x="992" y="3840" href="#P7"></use><use x="881" y="4106" href="#P4"></use><use x="1008" y="4214" href="#P11"></use><use x="957" y="4508" href="#P13"></use><use x="973" y="4656" href="#P8"></use><use x="1015" y="4748" href="#P1"></use><use x="901" y="4891" href="#P13"></use><use x="913" y="5077" href="#P9"></use><use x="1153" y="-66" href="#P13"></use><use x="1165" y="109" href="#P9"></use><use x="1186" y="248" href="#P8"></use><use x="1119" y="322" href="#P9"></use><use x="1055" y="530" href="#P12"></use><use x="1115" y="705" href="#P6"></use><use x="1087" y="981" href="#P12"></use><use x="1086" y="1041" href="#P8"></use><use x="1074" y="1233" href="#P8"></use><use x="1089" y="1414" href="#P1"></use><use x="1144" y="1651" href="#P6"></use><use x="1053" y="1877" href="#P13"></use><use x="1067" y="1995" href="#P4"></use><use x="1110" y="2186" href="#P1"></use><use x="1190" y="2454" href="#P12"></use><use x="1183" y="2575" href="#P12"></use><use x="1072" y="2787" href="#P9"></use><use x="1198" y="2908" href="#P1"></use><use x="1213" y="3148" href="#P12"></use><use x="1043" y="3284" href="#P1"></use><use x="1084" y="3453" href="#P0"></use><use x="1092" y="3738" href="#P0"></use><use x="1134" y="3890" href="#P6"></use><use x="1143" y="4126" href="#P3"></use><use x="1046" y="4202" href="#P3"></use><use x="1211" y="4467" href="#P4"></use><use x="1210" y="4529" href="#P10"></use><use x="1036" y="4705" href="#P7"></use><use x="1058" y="4968" href="#P12"></use><use x="1099" y="5093" href="#P3"></use><use x="1226" y="-122" href="#P0"></use><use x="1247" y="30" href="#P11"></use><use x="1386" y="202" href="#P9"></use><use x="1327" y="370" href="#P13"></use><use x="1265" y="636" href="#P4"></use><use x="1242" y="837" href="#P2"></use><use x="1348" y="889" href="#P5"></use><use x="1360" y="1179" href="#P10"></use><use x="1263" y="1237" href="#P11"></use><use x="1328" y="1493" href="#P7"></use><use x="1282" y="1702" href="#P12"></use><use x="1286" y="1938" href="#P13"></use><use x="1243" y="2113" href="#P0"></use><use x="1241" y="2208" href="#P4"></use><use x="1266" y="2474" href="#P12"></use><use x="1398" y="2632" href="#P12"></use><use x="1344" y="2810" href="#P10"></use><use x="1216" y="2938" href="#P2"></use><use x="1285" y="3230" href="#P5"></use><use x="1299" y="3359" href="#P9"></use><use x="1367" y="3469" href="#P5"></use><use x="1390" y="3719" href="#P12"></use><use x="1243" y="3943" href="#P4"></use><use x="1361" y="4010" href="#P8"></use><use x="1391" y="4184" href="#P6"></use><use x="1251" y="4445" href="#P10"></use><use x="1311" y="4564" href="#P8"></use><use x="1308" y="4792" href="#P0"></use><use x="1291" y="5032" href="#P12"></use><use x="1368" y="5198" href="#P13"></use><use x="1552" y="-115" href="#P4"></use><use x="1523" y="106" href="#P3"></use><use x="1522" y="128" href="#P4"></use><use x="1447" y="398" href="#P6"></use><use x="1577" y="619" href="#P1"></use><use x="1412" y="749" href="#P9"></use><use x="1501" y="1015" href="#P2"></use><use x="1559" y="1039" href="#P12"></use><use x="1548" y="1352" href="#P4"></use><use x="1409" y="1480" href="#P11"></use><use x="1446" y="1624" href="#P8"></use><use x="1404" y="1844" href="#P11"></use><use x="1406" y="2132" href="#P1"></use><use x="1452" y="2265" href="#P0"></use><use x="1534" y="2383" href="#P4"></use><use x="1491" y="2627" href="#P7"></use><use x="1440" y="2683" href="#P12"></use><use x="1529" y="2903" href="#P5"></use><use x="1424" y="3232" href="#P10"></use><use x="1486" y="3234" href="#P0"></use><use x="1570" y="3547" href="#P10"></use><use x="1412" y="3713" href="#P7"></use><use x="1481" y="3880" href="#P10"></use><use x="1527" y="3969" href="#P7"></use><use x="1431" y="4275" href="#P1"></use><use x="1564" y="4392" href="#P8"></use><use x="1420" y="4669" href="#P9"></use><use x="1455" y="4756" href="#P9"></use><use x="1425" y="5003" href="#P0"></use><use x="1550" y="5087" href="#P5"></use><use x="1686" y="-188" href="#P11"></use><use x="1761" y="56" href="#P9"></use><use x="1658" y="170" href="#P2"></use><use x="1691" y="356" href="#P5"></use><use x="1622" y="585" href="#P10"></use><use x="1694" y="753" href="#P2"></use><use x="1733" y="948" href="#P0"></use><use x="1616" y="1061" href="#P1"></use><use x="1615" y="1219" href="#P3"></use><use x="1749" y="1476" href="#P1"></use><use x="1710" y="1681" href="#P2"></use><use x="1703" y="1859" href="#P12"></use><use x="1669" y="2030" href="#P11"></use><use x="1648" y="2216" href="#P11"></use><use x="1760" y="2372" href="#P5"></use><use x="1711" y="2672" href="#P7"></use><use x="1603" y="2853" href="#P2"></use><use x="1750" y="2955" href="#P1"></use><use x="1639" y="3165" href="#P4"></use><use x="1742" y="3401" href="#P13"></use><use x="1752" y="3484" href="#P9"></use><use x="1670" y="3664" href="#P1"></use><use x="1627" y="3887" href="#P7"></use><use x="1617" y="4052" href="#P7"></use><use x="1641" y="4293" href="#P5"></use><use x="1712" y="4425" href="#P13"></use><use x="1622" y="4671" href="#P10"></use><use x="1679" y="4773" href="#P6"></use><use x="1746" y="5064" href="#P4"></use><use x="1597" y="5205" href="#P7"></use><use x="1922" y="-89" href="#P13"></use><use x="1795" y="37" href="#P11"></use><use x="1935" y="179" href="#P2"></use><use x="1878" y="333" href="#P11"></use><use x="1829" y="492" href="#P6"></use><use x="1870" y="782" href="#P1"></use><use x="1944" y="973" href="#P9"></use><use x="1883" y="1175" href="#P5"></use><use x="1897" y="1323" href="#P2"></use><use x="1773" y="1557" href="#P3"></use><use x="1825" y="1720" href="#P11"></use><use x="1774" y="1828" href="#P3"></use><use x="1773" y="2059" href="#P8"></use><use x="1900" y="2210" href="#P12"></use><use x="1891" y="2350" href="#P8"></use><use x="1833" y="2635" href="#P2"></use><use x="1857" y="2764" href="#P5"></use><use x="1819" y="2974" href="#P1"></use><use x="1890" y="3128" href="#P11"></use><use x="1890" y="3316" href="#P11"></use><use x="1848" y="3440" href="#P1"></use><use x="1842" y="3781" href="#P10"></use><use x="1811" y="3924" href="#P11"></use><use x="1934" y="4028" href="#P2"></use><use x="1805" y="4290" href="#P6"></use><use x="1897" y="4440" href="#P4"></use><use x="1880" y="4538" href="#P2"></use><use x="1795" y="4828" href="#P8"></use><use x="1871" y="4986" href="#P9"></use><use x="1797" y="5115" href="#P5"></use><use x="2116" y="-205" href="#P10"></use><use x="2099" y="77" href="#P0"></use><use x="2080" y="129" href="#P4"></use><use x="2001" y="426" href="#P8"></use><use x="2054" y="661" href="#P0"></use><use x="2051" y="765" href="#P5"></use><use x="2131" y="1020" href="#P11"></use><use x="2055" y="1092" href="#P13"></use><use x="1969" y="1394" href="#P13"></use><use x="2115" y="1434" href="#P4"></use><use x="2109" y="1600" href="#P7"></use><use x="2035" y="1834" href="#P3"></use><use x="1964" y="2115" href="#P10"></use><use x="1967" y="2150" href="#P1"></use><use x="2098" y="2354" href="#P8"></use><use x="2011" y="2636" href="#P8"></use><use x="1979" y="2766" href="#P0"></use><use x="1985" y="3031" href="#P13"></use><use x="2049" y="3089" href="#P11"></use><use x="2081" y="3351" href="#P0"></use><use x="2028" y="3503" href="#P13"></use><use x="2057" y="3746" href="#P6"></use><use x="2089" y="3856" href="#P7"></use><use x="2025" y="3969" href="#P11"></use><use x="2029" y="4168" href="#P11"></use><use x="2021" y="4373" href="#P2"></use><use x="1967" y="4623" href="#P11"></use><use x="2115" y="4804" href="#P12"></use><use x="1964" y="4914" href="#P1"></use><use x="2084" y="5077" href="#P2"></use><use x="2317" y="-115" href="#P3"></use><use x="2247" y="-15" href="#P10"></use><use x="2308" y="239" href="#P10"></use><use x="2238" y="379" href="#P4"></use><use x="2184" y="559" href="#P7"></use><use x="2235" y="781" href="#P12"></use><use x="2239" y="891" href="#P6"></use><use x="2146" y="1204" href="#P11"></use><use x="2166" y="1355" href="#P5"></use><use x="2184" y="1567" href="#P10"></use><use x="2305" y="1674" href="#P13"></use><use x="2314" y="1807" href="#P0"></use><use x="2183" y="1967" href="#P9"></use><use x="2148" y="2243" href="#P13"></use><use x="2281" y="2359" href="#P1"></use><use x="2180" y="2673" href="#P3"></use><use x="2204" y="2747" href="#P7"></use><use x="2257" y="2902" href="#P12"></use><use x="2193" y="3164" href="#P11"></use><use x="2262" y="3300" href="#P11"></use><use x="2244" y="3422" href="#P10"></use><use x="2246" y="3776" href="#P4"></use><use x="2248" y="3953" href="#P13"></use><use x="2187" y="4150" href="#P9"></use><use x="2227" y="4269" href="#P8"></use><use x="2229" y="4480" href="#P11"></use><use x="2163" y="4678" href="#P10"></use><use x="2215" y="4793" href="#P5"></use><use x="2142" y="4943" href="#P9"></use><use x="2155" y="5104" href="#P1"></use><use x="2451" y="-207" href="#P13"></use><use x="2440" y="-41" href="#P10"></use><use x="2433" y="289" href="#P3"></use><use x="2358" y="431" href="#P5"></use><use x="2438" y="601" href="#P10"></use><use x="2363" y="729" href="#P3"></use><use x="2440" y="899" href="#P12"></use><use x="2466" y="1116" href="#P12"></use><use x="2388" y="1289" href="#P1"></use><use x="2448" y="1523" href="#P13"></use><use x="2352" y="1762" href="#P5"></use><use x="2499" y="1949" href="#P13"></use><use x="2483" y="2122" href="#P12"></use><use x="2484" y="2286" href="#P13"></use><use x="2451" y="2401" href="#P9"></use><use x="2450" y="2640" href="#P8"></use><use x="2430" y="2694" href="#P12"></use><use x="2429" y="2976" href="#P1"></use><use x="2493" y="3218" href="#P4"></use><use x="2354" y="3236" href="#P2"></use><use x="2322" y="3584" href="#P10"></use><use x="2375" y="3625" href="#P3"></use><use x="2493" y="3788" href="#P13"></use><use x="2494" y="4067" href="#P3"></use><use x="2319" y="4293" href="#P1"></use><use x="2472" y="4516" href="#P1"></use><use x="2456" y="4588" href="#P4"></use><use x="2358" y="4748" href="#P1"></use><use x="2342" y="5057" href="#P10"></use><use x="2477" y="5110" href="#P7"></use><use x="2684" y="-109" href="#P10"></use><use x="2582" y="9" href="#P12"></use><use x="2584" y="130" href="#P3"></use><use x="2596" y="391" href="#P5"></use><use x="2571" y="627" href="#P8"></use><use x="2624" y="821" href="#P11"></use><use x="2672" y="1003" href="#P13"></use><use x="2547" y="1206" href="#P8"></use><use x="2681" y="1313" href="#P5"></use><use x="2556" y="1439" href="#P5"></use><use x="2600" y="1653" href="#P6"></use><use x="2655" y="1788" href="#P8"></use><use x="2676" y="1978" href="#P8"></use><use x="2641" y="2147" href="#P8"></use><use x="2612" y="2402" href="#P13"></use><use x="2580" y="2544" href="#P9"></use><use x="2578" y="2742" href="#P3"></use><use x="2586" y="2879" href="#P1"></use><use x="2585" y="3143" href="#P9"></use><use x="2651" y="3411" href="#P11"></use><use x="2519" y="3541" href="#P12"></use><use x="2632" y="3655" href="#P5"></use><use x="2556" y="3838" href="#P10"></use><use x="2636" y="4083" href="#P13"></use><use x="2681" y="4310" href="#P11"></use><use x="2645" y="4478" href="#P9"></use><use x="2615" y="4556" href="#P5"></use><use x="2651" y="4771" href="#P8"></use><use x="2639" y="5045" href="#P6"></use><use x="2651" y="5223" href="#P5"></use><use x="2735" y="-201" href="#P0"></use><use x="2685" y="6" href="#P2"></use><use x="2742" y="180" href="#P3"></use><use x="2730" y="445" href="#P12"></use><use x="2711" y="524" href="#P12"></use><use x="2734" y="719" href="#P5"></use><use x="2761" y="965" href="#P3"></use><use x="2698" y="1192" href="#P11"></use><use x="2822" y="1388" href="#P1"></use><use x="2801" y="1548" href="#P0"></use><use x="2748" y="1697" href="#P4"></use><use x="2745" y="1773" href="#P12"></use><use x="2856" y="2088" href="#P13"></use><use x="2755" y="2262" href="#P5"></use><use x="2850" y="2478" href="#P5"></use><use x="2714" y="2653" href="#P12"></use><use x="2828" y="2857" href="#P2"></use><use x="2837" y="2935" href="#P12"></use><use x="2755" y="3123" href="#P13"></use><use x="2722" y="3296" href="#P10"></use><use x="2803" y="3510" href="#P2"></use><use x="2857" y="3666" href="#P1"></use><use x="2851" y="3866" href="#P8"></use><use x="2835" y="4084" href="#P3"></use><use x="2838" y="4267" href="#P13"></use><use x="2867" y="4467" href="#P10"></use><use x="2794" y="4532" href="#P9"></use><use x="2706" y="4758" href="#P13"></use><use x="2832" y="5039" href="#P1"></use><use x="2759" y="5223" href="#P13"></use><use x="2921" y="-96" href="#P13"></use><use x="2952" y="59" href="#P12"></use><use x="2981" y="138" href="#P0"></use><use x="2892" y="399" href="#P8"></use><use x="3048" y="623" href="#P4"></use><use x="2878" y="831" href="#P7"></use><use x="2986" y="901" href="#P13"></use><use x="2997" y="1180" href="#P12"></use><use x="3049" y="1277" href="#P2"></use><use x="2887" y="1478" href="#P2"></use><use x="2958" y="1726" href="#P9"></use><use x="2871" y="1950" href="#P12"></use><use x="3049" y="2074" href="#P10"></use><use x="3032" y="2174" href="#P0"></use><use x="3040" y="2369" href="#P7"></use><use x="2945" y="2683" href="#P4"></use><use x="2882" y="2803" href="#P1"></use><use x="2953" y="2890" href="#P7"></use><use x="3036" y="3197" href="#P8"></use><use x="3008" y="3279" href="#P12"></use><use x="2912" y="3556" href="#P6"></use><use x="2947" y="3653" href="#P10"></use><use x="3028" y="3910" href="#P11"></use><use x="2877" y="4091" href="#P12"></use><use x="2869" y="4174" href="#P10"></use><use x="2971" y="4425" href="#P1"></use><use x="3014" y="4562" href="#P2"></use><use x="3041" y="4761" href="#P5"></use><use x="2876" y="4919" href="#P5"></use><use x="2980" y="5187" href="#P8"></use><use x="3179" y="-109" href="#P1"></use><use x="3214" y="-50" href="#P2"></use><use x="3117" y="129" href="#P3"></use><use x="3140" y="403" href="#P4"></use><use x="3154" y="619" href="#P13"></use><use x="3156" y="803" href="#P1"></use><use x="3053" y="977" href="#P0"></use><use x="3184" y="1070" href="#P7"></use><use x="3059" y="1382" href="#P6"></use><use x="3142" y="1576" href="#P13"></use><use x="3060" y="1633" href="#P2"></use><use x="3135" y="1832" href="#P10"></use><use x="3154" y="2039" href="#P12"></use><use x="3063" y="2298" href="#P0"></use><use x="3117" y="2337" href="#P7"></use><use x="3074" y="2658" href="#P13"></use><use x="3067" y="2720" href="#P9"></use><use x="3097" y="2908" href="#P0"></use><use x="3066" y="3068" href="#P10"></use><use x="3195" y="3266" href="#P7"></use><use x="3146" y="3524" href="#P11"></use><use x="3091" y="3639" href="#P5"></use><use x="3215" y="3836" href="#P2"></use><use x="3099" y="4023" href="#P13"></use><use x="3145" y="4289" href="#P13"></use><use x="3119" y="4482" href="#P9"></use><use x="3098" y="4594" href="#P8"></use><use x="3228" y="4703" href="#P11"></use><use x="3073" y="4885" href="#P5"></use><use x="3164" y="5114" href="#P3"></use><use x="3295" y="-176" href="#P1"></use><use x="3275" y="0" href="#P10"></use><use x="3352" y="268" href="#P3"></use><use x="3304" y="430" href="#P7"></use><use x="3245" y="536" href="#P9"></use><use x="3359" y="680" href="#P6"></use><use x="3328" y="945" href="#P5"></use><use x="3251" y="1140" href="#P4"></use><use x="3378" y="1273" href="#P8"></use><use x="3288" y="1537" href="#P8"></use><use x="3292" y="1742" href="#P12"></use><use x="3351" y="1791" href="#P2"></use><use x="3254" y="2117" href="#P6"></use><use x="3247" y="2264" href="#P7"></use><use x="3399" y="2464" href="#P1"></use><use x="3415" y="2593" href="#P10"></use><use x="3375" y="2842" href="#P1"></use><use x="3401" y="2898" href="#P12"></use><use x="3402" y="3188" href="#P12"></use><use x="3335" y="3402" href="#P5"></use><use x="3255" y="3422" href="#P13"></use><use x="3376" y="3731" href="#P4"></use><use x="3244" y="3872" href="#P10"></use><use x="3364" y="4016" href="#P10"></use><use x="3396" y="4270" href="#P9"></use><use x="3335" y="4342" href="#P4"></use><use x="3413" y="4634" href="#P12"></use><use x="3246" y="4862" href="#P13"></use><use x="3366" y="4917" href="#P5"></use><use x="3250" y="5234" href="#P3"></use><use x="3441" y="-192" href="#P7"></use><use x="3506" y="39" href="#P1"></use><use x="3592" y="191" href="#P0"></use><use x="3515" y="346" href="#P13"></use><use x="3567" y="495" href="#P4"></use><use x="3593" y="804" href="#P6"></use><use x="3590" y="1024" href="#P2"></use><use x="3488" y="1071" href="#P9"></use><use x="3469" y="1385" href="#P0"></use><use x="3545" y="1524" href="#P9"></use><use x="3551" y="1714" href="#P0"></use><use x="3541" y="1885" href="#P11"></use><use x="3489" y="2099" href="#P2"></use><use x="3515" y="2157" href="#P13"></use><use x="3519" y="2381" href="#P8"></use><use x="3568" y="2613" href="#P12"></use><use x="3599" y="2718" href="#P2"></use><use x="3596" y="2976" href="#P0"></use><use x="3438" y="3232" href="#P2"></use><use x="3480" y="3319" href="#P0"></use><use x="3487" y="3469" href="#P1"></use><use x="3495" y="3706" href="#P1"></use><use x="3436" y="3887" href="#P6"></use><use x="3539" y="4106" href="#P12"></use><use x="3490" y="4281" href="#P13"></use><use x="3573" y="4354" href="#P6"></use><use x="3539" y="4544" href="#P13"></use><use x="3490" y="4810" href="#P1"></use><use x="3436" y="4931" href="#P10"></use><use x="3564" y="5108" href="#P0"></use><use x="3731" y="-121" href="#P2"></use><use x="3742" y="34" href="#P13"></use><use x="3761" y="280" href="#P10"></use><use x="3738" y="344" href="#P2"></use><use x="3692" y="588" href="#P2"></use><use x="3644" y="830" href="#P6"></use><use x="3608" y="896" href="#P8"></use><use x="3713" y="1063" href="#P10"></use><use x="3691" y="1362" href="#P5"></use><use x="3721" y="1472" href="#P13"></use><use x="3737" y="1679" href="#P5"></use><use x="3771" y="1888" href="#P3"></use><use x="3687" y="2075" href="#P9"></use><use x="3758" y="2151" href="#P0"></use><use x="3649" y="2406" href="#P7"></use><use x="3777" y="2537" href="#P11"></use><use x="3768" y="2776" href="#P13"></use><use x="3714" y="2979" href="#P1"></use><use x="3670" y="3118" href="#P9"></use><use x="3692" y="3414" href="#P11"></use><use x="3731" y="3569" href="#P2"></use><use x="3674" y="3763" href="#P10"></use><use x="3735" y="3789" href="#P0"></use><use x="3703" y="4143" href="#P6"></use><use x="3687" y="4226" href="#P5"></use><use x="3674" y="4488" href="#P2"></use><use x="3657" y="4595" href="#P12"></use><use x="3644" y="4818" href="#P11"></use><use x="3777" y="5051" href="#P11"></use><use x="3748" y="5128" href="#P4"></use><use x="3879" y="-186" href="#P11"></use><use x="3787" y="18" href="#P1"></use><use x="3960" y="282" href="#P0"></use><use x="3896" y="419" href="#P3"></use><use x="3799" y="571" href="#P7"></use><use x="3898" y="841" href="#P12"></use><use x="3962" y="865" href="#P4"></use><use x="3824" y="1086" href="#P12"></use><use x="3881" y="1218" href="#P4"></use><use x="3861" y="1534" href="#P2"></use><use x="3901" y="1637" href="#P2"></use><use x="3811" y="1895" href="#P1"></use><use x="3799" y="1992" href="#P13"></use><use x="3889" y="2160" href="#P6"></use><use x="3820" y="2337" href="#P6"></use><use x="3839" y="2582" href="#P12"></use><use x="3877" y="2803" href="#P10"></use><use x="3804" y="2942" href="#P3"></use><use x="3862" y="3180" href="#P7"></use><use x="3957" y="3266" href="#P5"></use><use x="3932" y="3518" href="#P1"></use><use x="3944" y="3633" href="#P5"></use><use x="3924" y="3896" href="#P4"></use><use x="3931" y="4120" href="#P13"></use><use x="3955" y="4234" href="#P6"></use><use x="3839" y="4374" href="#P12"></use><use x="3915" y="4615" href="#P4"></use><use x="3937" y="4850" href="#P2"></use><use x="3927" y="5052" href="#P2"></use><use x="3946" y="5114" href="#P11"></use><use x="4093" y="-68" href="#P3"></use><use x="4069" y="-35" href="#P5"></use><use x="4077" y="131" href="#P4"></use><use x="4079" y="481" href="#P10"></use><use x="4091" y="483" href="#P11"></use><use x="4000" y="712" href="#P6"></use><use x="4054" y="958" href="#P6"></use><use x="4014" y="1036" href="#P0"></use><use x="4055" y="1333" href="#P3"></use><use x="4134" y="1406" href="#P8"></use><use x="4117" y="1614" href="#P5"></use><use x="4049" y="1824" href="#P9"></use><use x="4109" y="2029" href="#P4"></use><use x="4044" y="2222" href="#P12"></use><use x="4098" y="2325" href="#P12"></use><use x="4002" y="2546" href="#P11"></use><use x="4118" y="2698" href="#P9"></use><use x="4093" y="2911" href="#P2"></use><use x="4045" y="3114" href="#P2"></use><use x="4012" y="3313" href="#P4"></use><use x="4063" y="3511" href="#P3"></use><use x="4119" y="3704" href="#P9"></use><use x="4078" y="3941" href="#P5"></use><use x="4040" y="4085" href="#P1"></use><use x="4104" y="4212" href="#P6"></use><use x="4147" y="4361" href="#P10"></use><use x="4052" y="4598" href="#P7"></use><use x="3981" y="4835" href="#P4"></use><use x="4036" y="4932" href="#P4"></use><use x="4149" y="5159" href="#P5"></use><use x="4186" y="-221" href="#P0"></use><use x="4174" y="53" href="#P11"></use><use x="4218" y="148" href="#P10"></use><use x="4286" y="399" href="#P7"></use><use x="4220" y="650" href="#P1"></use><use x="4246" y="763" href="#P10"></use><use x="4330" y="883" href="#P9"></use><use x="4249" y="1143" href="#P11"></use><use x="4263" y="1230" href="#P6"></use><use x="4327" y="1402" href="#P9"></use><use x="4327" y="1733" href="#P1"></use><use x="4205" y="1865" href="#P8"></use><use x="4161" y="2031" href="#P0"></use><use x="4156" y="2231" href="#P8"></use><use x="4191" y="2331" href="#P9"></use><use x="4255" y="2530" href="#P8"></use><use x="4314" y="2777" href="#P3"></use><use x="4181" y="3002" href="#P7"></use><use x="4218" y="3202" href="#P0"></use><use x="4174" y="3366" href="#P8"></use><use x="4207" y="3546" href="#P2"></use><use x="4231" y="3699" href="#P12"></use><use x="4245" y="3907" href="#P13"></use><use x="4333" y="3978" href="#P7"></use><use x="4263" y="4220" href="#P13"></use><use x="4298" y="4403" href="#P7"></use><use x="4226" y="4631" href="#P13"></use><use x="4162" y="4768" href="#P1"></use><use x="4299" y="4987" href="#P3"></use><use x="4176" y="5107" href="#P7"></use><use x="4354" y="-103" href="#P12"></use><use x="4502" y="4" href="#P2"></use><use x="4398" y="288" href="#P11"></use><use x="4489" y="322" href="#P10"></use><use x="4501" y="498" href="#P7"></use><use x="4353" y="722" href="#P11"></use><use x="4440" y="983" href="#P0"></use><use x="4355" y="1048" href="#P5"></use><use x="4474" y="1232" href="#P10"></use><use x="4491" y="1411" href="#P12"></use><use x="4370" y="1718" href="#P4"></use><use x="4431" y="1926" href="#P11"></use><use x="4341" y="2020" href="#P12"></use><use x="4397" y="2164" href="#P12"></use><use x="4339" y="2327" href="#P1"></use><use x="4388" y="2524" href="#P4"></use><use x="4334" y="2755" href="#P9"></use><use x="4359" y="2974" href="#P11"></use><use x="4352" y="3176" href="#P12"></use><use x="4517" y="3362" href="#P11"></use><use x="4515" y="3577" href="#P1"></use><use x="4349" y="3605" href="#P13"></use><use x="4508" y="3820" href="#P1"></use><use x="4397" y="4078" href="#P8"></use><use x="4501" y="4192" href="#P6"></use><use x="4489" y="4483" href="#P12"></use><use x="4510" y="4670" href="#P1"></use><use x="4511" y="4757" href="#P0"></use><use x="4457" y="5023" href="#P3"></use><use x="4420" y="5174" href="#P4"></use><use x="4548" y="-73" href="#P3"></use><use x="4616" y="13" href="#P6"></use><use x="4695" y="120" href="#P2"></use><use x="4530" y="345" href="#P3"></use><use x="4545" y="511" href="#P6"></use><use x="4595" y="802" href="#P8"></use><use x="4648" y="1005" href="#P6"></use><use x="4530" y="1075" href="#P2"></use><use x="4666" y="1265" href="#P2"></use><use x="4534" y="1478" href="#P4"></use><use x="4527" y="1618" href="#P10"></use><use x="4686" y="1809" href="#P11"></use><use x="4668" y="1982" href="#P7"></use><use x="4553" y="2245" href="#P2"></use><use x="4538" y="2323" href="#P1"></use><use x="4526" y="2623" href="#P6"></use><use x="4689" y="2850" href="#P1"></use><use x="4588" y="2967" href="#P13"></use><use x="4568" y="3096" href="#P4"></use><use x="4519" y="3353" href="#P13"></use><use x="4678" y="3600" href="#P1"></use><use x="4688" y="3702" href="#P4"></use><use x="4651" y="3850" href="#P5"></use><use x="4587" y="4093" href="#P10"></use><use x="4578" y="4176" href="#P5"></use><use x="4526" y="4448" href="#P5"></use><use x="4554" y="4549" href="#P9"></use><use x="4584" y="4851" href="#P9"></use><use x="4562" y="5026" href="#P1"></use><use x="4539" y="5153" href="#P1"></use><use x="4873" y="-230" href="#P6"></use><use x="4771" y="50" href="#P0"></use><use x="4761" y="257" href="#P3"></use><use x="4878" y="389" href="#P8"></use><use x="4751" y="528" href="#P8"></use><use x="4790" y="758" href="#P2"></use><use x="4824" y="939" href="#P4"></use><use x="4804" y="1067" href="#P12"></use><use x="4768" y="1232" href="#P13"></use><use x="4809" y="1555" href="#P10"></use><use x="4814" y="1727" href="#P0"></use><use x="4833" y="1946" href="#P11"></use><use x="4813" y="2035" href="#P4"></use><use x="4817" y="2316" href="#P7"></use><use x="4877" y="2442" href="#P3"></use><use x="4702" y="2650" href="#P0"></use><use x="4816" y="2817" href="#P1"></use><use x="4744" y="2890" href="#P2"></use><use x="4841" y="3106" href="#P1"></use><use x="4765" y="3284" href="#P8"></use><use x="4702" y="3504" href="#P4"></use><use x="4752" y="3783" href="#P5"></use><use x="4868" y="3856" href="#P8"></use><use x="4806" y="4025" href="#P1"></use><use x="4736" y="4324" href="#P9"></use><use x="4864" y="4511" href="#P7"></use><use x="4861" y="4521" href="#P11"></use><use x="4877" y="4822" href="#P7"></use><use x="4844" y="5049" href="#P5"></use><use x="4728" y="5231" href="#P11"></use><use x="5008" y="-245" href="#P2"></use><use x="5055" y="81" href="#P4"></use><use x="4940" y="259" href="#P0"></use><use x="5032" y="342" href="#P4"></use><use x="5019" y="499" href="#P10"></use><use x="4929" y="810" href="#P11"></use><use x="4926" y="882" href="#P9"></use><use x="5063" y="1154" href="#P8"></use><use x="5050" y="1344" href="#P12"></use><use x="4931" y="1523" href="#P6"></use><use x="4993" y="1641" href="#P0"></use><use x="4966" y="1913" href="#P10"></use><use x="4946" y="2105" href="#P0"></use><use x="4906" y="2224" href="#P7"></use><use x="4942" y="2321" href="#P12"></use><use x="4977" y="2538" href="#P1"></use><use x="4887" y="2741" href="#P5"></use><use x="4884" y="2870" href="#P3"></use><use x="5037" y="3156" href="#P0"></use><use x="4998" y="3404" href="#P5"></use><use x="5042" y="3585" href="#P10"></use><use x="4990" y="3762" href="#P10"></use><use x="4957" y="3905" href="#P2"></use><use x="4981" y="4147" href="#P11"></use><use x="5056" y="4251" href="#P11"></use><use x="4993" y="4345" href="#P3"></use><use x="4909" y="4667" href="#P9"></use><use x="5039" y="4750" href="#P8"></use><use x="5061" y="4904" href="#P8"></use><use x="5017" y="5227" href="#P6"></use><use x="5162" y="-245" href="#P8"></use><use x="5242" y="-32" href="#P12"></use><use x="5222" y="146" href="#P4"></use><use x="5138" y="428" href="#P0"></use><use x="5144" y="548" href="#P8"></use><use x="5185" y="690" href="#P9"></use><use x="5238" y="980" href="#P13"></use><use x="5142" y="1104" href="#P8"></use><use x="5131" y="1381" href="#P6"></use><use x="5161" y="1560" href="#P10"></use><use x="5161" y="1766" href="#P9"></use><use x="5177" y="1799" href="#P13"></use><use x="5101" y="1979" href="#P0"></use><use x="5116" y="2203" href="#P5"></use><use x="5172" y="2358" href="#P12"></use><use x="5178" y="2533" href="#P5"></use><use x="5224" y="2857" href="#P3"></use><use x="5243" y="2879" href="#P0"></use><use x="5130" y="3142" href="#P10"></use><use x="5086" y="3291" href="#P2"></use><use x="5222" y="3469" href="#P11"></use><use x="5113" y="3634" href="#P11"></use><use x="5098" y="3825" href="#P10"></use><use x="5101" y="4015" href="#P4"></use><use x="5077" y="4153" href="#P4"></use><use x="5095" y="4458" href="#P8"></use><use x="5078" y="4621" href="#P11"></use><use x="5185" y="4764" href="#P7"></use><use x="5231" y="4981" href="#P3"></use><use x="5210" y="5243" href="#P13"></use></g></svg>