<svg xmlns="http://www.w3.org/2000/svg" xmlns:xlink="http://www.w3.org/1999/xlink" width="500" zoomAndPan="magnify" viewBox="0 0 375 374.999991" height="500" preserveAspectRatio="xMidYMid meet" version="1.0"><defs><g/><clipPath id="d35b34f5cb"><path d="M 17.25 0 L 357.75 0 C 362.324219 0 366.710938 1.816406 369.949219 5.050781 C 373.183594 8.289062 375 12.675781 375 17.25 L 375 357.75 C 375 362.324219 373.183594 366.710938 369.949219 369.949219 C 366.710938 373.183594 362.324219 375 357.75 375 L 17.25 375 C 12.675781 375 8.289062 373.183594 5.050781 369.949219 C 1.816406 366.710938 0 362.324219 0 357.75 L 0 17.25 C 0 12.675781 1.816406 8.289062 5.050781 5.050781 C 8.289062 1.816406 12.675781 0 17.25 0 " clip-rule="nonzero"/></clipPath></defs><g clip-path="url(#d35b34f5cb)"><path stroke-linecap="butt" transform="matrix(0.75, 0, 0, 0.75, 0.0000045, 0)" fill="none" stroke-linejoin="miter" d="M 22.999997 0 L 477.000056 0 C 483.099015 0 488.947974 2.421875 493.265683 6.734376 C 497.578184 11.052085 500.000059 16.901044 500.000059 23.000003 L 500.000059 477.000062 C 500.000059 483.099021 497.578184 488.94798 493.265683 493.265689 C 488.947974 497.57819 483.099015 500.000065 477.000056 500.000065 L 22.999997 500.000065 C 16.901038 500.000065 11.052079 497.57819 6.73437 493.265689 C 2.421869 488.94798 -0.000006 483.099021 -0.000006 477.000062 L -0.000006 23.000003 C -0.000006 16.901044 2.421869 11.052085 6.73437 6.734376 C 11.052079 2.421875 16.901038 0 22.999997 0 " stroke="#ff3131" stroke-width="8" stroke-opacity="1" stroke-miterlimit="4"/></g><path stroke-linecap="round" transform="matrix(0.648811, 0.374018, -0.374569, 0.649768, 48.362013, 131.688889)" fill="none" stroke-linejoin="miter" d="M 14.502444 14.500718 L 144.744849 14.497615 " stroke="#ff3131" stroke-width="29" stroke-opacity="1" stroke-miterlimit="4"/><path stroke-linecap="round" transform="matrix(0.64656, -0.377896, 0.378453, 0.647513, 37.499599, 242.109915)" fill="none" stroke-linejoin="miter" d="M 14.501023 14.500869 L 144.745501 14.501122 " stroke="#ff3131" stroke-width="29" stroke-opacity="1" stroke-miterlimit="4"/><path stroke-linecap="round" transform="matrix(0.748909, 0.00000000000000018, -0.00000000000000018, 0.75, 160.239296, 262.389621)" fill="none" stroke-linejoin="miter" d="M 14.498902 14.501339 L 221.847372 14.501339 " stroke="#ff3131" stroke-width="29" stroke-opacity="1" stroke-miterlimit="4"/><g fill="#ff3131" fill-opacity="1"><g transform="translate(151.836995, 248.34914)"><g><path d="M 49.96875 -111.390625 C 55.539062 -111.390625 60.617188 -110.585938 65.203125 -108.984375 C 69.796875 -107.390625 73.691406 -105.125 76.890625 -102.1875 C 80.085938 -99.25 82.5625 -95.691406 84.3125 -91.515625 C 86.070312 -87.335938 86.953125 -82.671875 86.953125 -77.515625 C 86.953125 -72.460938 86.070312 -67.847656 84.3125 -63.671875 C 82.5625 -59.492188 80.0625 -55.929688 76.8125 -52.984375 C 73.5625 -50.046875 69.664062 -47.773438 65.125 -46.171875 C 60.59375 -44.578125 55.539062 -43.78125 49.96875 -43.78125 L 30.78125 -43.78125 L 30.78125 0 L 11.453125 0 L 11.453125 -111.390625 Z M 30.78125 -95 L 30.78125 -60.1875 L 49.96875 -60.1875 C 55.332031 -60.1875 59.5625 -61.757812 62.65625 -64.90625 C 65.75 -68.050781 67.296875 -72.253906 67.296875 -77.515625 C 67.296875 -82.773438 65.75 -87.003906 62.65625 -90.203125 C 59.5625 -93.398438 55.332031 -95 49.96875 -95 Z M 30.78125 -95 "/></g></g></g><g fill="#ff3131" fill-opacity="1"><g transform="translate(244.663519, 248.34914)"><g><path d="M 31.09375 -111.390625 L 31.09375 -66.21875 L 45.328125 -66.21875 L 66.6875 -111.390625 L 88.1875 -111.390625 L 62.359375 -58.015625 L 89.421875 0 L 67.609375 0 L 45.328125 -48.734375 L 31.09375 -48.734375 L 31.09375 0 L 11.609375 0 L 11.609375 -111.390625 Z M 31.09375 -111.390625 "/></g></g></g></svg>