<svg xmlns="http://www.w3.org/2000/svg" xmlns:xlink="http://www.w3.org/1999/xlink" width="500" zoomAndPan="magnify" viewBox="0 0 375 374.999991" height="500" preserveAspectRatio="xMidYMid meet" version="1.0"><defs><g/><clipPath id="515fdaeed8"><path d="M 1 76.820312 L 374 76.820312 L 374 303.320312 L 1 303.320312 Z M 1 76.820312 " clip-rule="nonzero"/></clipPath><clipPath id="97f6f6db96"><path d="M 42.324219 86.832031 L 333.3125 86.832031 L 333.3125 101.757812 L 42.324219 101.757812 Z M 42.324219 86.832031 " clip-rule="nonzero"/></clipPath><clipPath id="efd6e3a7e2"><path d="M 48.511719 88.835938 L 59.4375 88.835938 L 59.4375 99.757812 L 48.511719 99.757812 Z M 48.511719 88.835938 " clip-rule="nonzero"/></clipPath><clipPath id="6b7c913423"><path d="M 53.972656 88.835938 C 50.957031 88.835938 48.511719 91.28125 48.511719 94.296875 C 48.511719 97.3125 50.957031 99.757812 53.972656 99.757812 C 56.992188 99.757812 59.4375 97.3125 59.4375 94.296875 C 59.4375 91.28125 56.992188 88.835938 53.972656 88.835938 " clip-rule="nonzero"/></clipPath><clipPath id="04ac2137f1"><path d="M 62.519531 88.835938 L 73.441406 88.835938 L 73.441406 99.757812 L 62.519531 99.757812 Z M 62.519531 88.835938 " clip-rule="nonzero"/></clipPath><clipPath id="188484591d"><path d="M 67.980469 88.835938 C 64.964844 88.835938 62.519531 91.28125 62.519531 94.296875 C 62.519531 97.3125 64.964844 99.757812 67.980469 99.757812 C 70.996094 99.757812 73.441406 97.3125 73.441406 94.296875 C 73.441406 91.28125 70.996094 88.835938 67.980469 88.835938 " clip-rule="nonzero"/></clipPath><clipPath id="13e9cda92e"><path d="M 76.800781 88.835938 L 87.722656 88.835938 L 87.722656 99.757812 L 76.800781 99.757812 Z M 76.800781 88.835938 " clip-rule="nonzero"/></clipPath><clipPath id="e7afc2bc84"><path d="M 82.261719 88.835938 C 79.246094 88.835938 76.800781 91.28125 76.800781 94.296875 C 76.800781 97.3125 79.246094 99.757812 82.261719 99.757812 C 85.277344 99.757812 87.722656 97.3125 87.722656 94.296875 C 87.722656 91.28125 85.277344 88.835938 82.261719 88.835938 " clip-rule="nonzero"/></clipPath></defs><g clip-path="url(#515fdaeed8)"><path fill="#f97316" d="M 44.875 76.820312 C 39.085938 76.820312 34.421875 81.382812 34.421875 87.050781 L 34.421875 274.179688 C 34.421875 279.570312 33.664062 283.960938 38.570312 284.378906 L 4.222656 284.378906 C 0.15625 284.378906 2.234375 287.546875 2.234375 291.480469 L 2.234375 296.21875 C 2.234375 300.152344 5.507812 303.324219 9.574219 303.324219 L 365.425781 303.324219 C 369.492188 303.324219 372.765625 300.152344 372.765625 296.21875 L 372.765625 291.480469 C 372.765625 287.546875 374.84375 284.378906 370.777344 284.378906 L 336.429688 284.378906 C 341.335938 283.960938 340.574219 279.570312 340.574219 274.179688 L 340.574219 87.050781 C 340.574219 81.382812 335.914062 76.820312 330.125 76.820312 Z M 135.167969 79.300781 C 136.65625 79.300781 137.859375 80.480469 137.859375 81.933594 C 137.859375 83.390625 136.65625 84.566406 135.167969 84.566406 C 133.683594 84.566406 132.480469 83.390625 132.480469 81.933594 C 132.480469 80.480469 133.683594 79.300781 135.167969 79.300781 Z M 44.621094 87.070312 L 330.378906 87.070312 L 330.378906 274.160156 L 44.621094 274.160156 Z M 141.042969 284.410156 L 233.957031 284.410156 C 233.816406 286.390625 232.441406 287.9375 230.75 287.9375 L 144.25 287.9375 C 142.558594 287.9375 141.183594 286.390625 141.042969 284.410156 Z M 329.691406 290.015625 C 331.882812 290.015625 333.65625 291.730469 333.65625 293.851562 C 333.65625 295.96875 331.882812 297.6875 329.691406 297.6875 C 327.503906 297.6875 325.730469 295.96875 325.730469 293.851562 C 325.730469 291.730469 327.503906 290.015625 329.691406 290.015625 Z M 342.1875 290.015625 C 344.378906 290.015625 346.152344 291.730469 346.152344 293.851562 C 346.152344 295.96875 344.378906 297.6875 342.1875 297.6875 C 340 297.6875 338.226562 295.96875 338.226562 293.851562 C 338.226562 291.730469 340 290.015625 342.1875 290.015625 Z M 354.683594 290.015625 C 356.875 290.015625 358.648438 291.730469 358.648438 293.851562 C 358.648438 295.96875 356.875 297.6875 354.683594 297.6875 C 352.496094 297.6875 350.722656 295.96875 350.722656 293.851562 C 350.722656 291.730469 352.496094 290.015625 354.683594 290.015625 Z M 18.046875 292.554688 L 38.835938 292.554688 C 39.851562 292.554688 40.671875 293.132812 40.671875 293.851562 C 40.671875 294.570312 39.851562 295.144531 38.835938 295.144531 L 18.046875 295.144531 C 17.03125 295.144531 16.210938 294.570312 16.210938 293.851562 C 16.210938 293.132812 17.03125 292.554688 18.046875 292.554688 Z M 18.046875 292.554688 " fill-opacity="1" fill-rule="nonzero"/></g><g clip-path="url(#97f6f6db96)"><path fill="#f97316``" d="M 42.324219 86.832031 L 333.3125 86.832031 L 333.3125 101.757812 L 42.324219 101.757812 Z M 42.324219 86.832031 " fill-opacity="1" fill-rule="nonzero"/></g><g clip-path="url(#efd6e3a7e2)"><g clip-path="url(#6b7c913423)"><path fill="#ffffff" d="M 48.511719 88.835938 L 59.4375 88.835938 L 59.4375 99.757812 L 48.511719 99.757812 Z M 48.511719 88.835938 " fill-opacity="1" fill-rule="nonzero"/></g></g><g fill="#f97316" fill-opacity="1"><g transform="translate(42.958098, 204.610332)"><g><path d="M 9.375 -18.6875 L 9.375 -21.078125 C 9.375 -21.953125 9.921875 -22.75 11.015625 -23.46875 L 34.890625 -38.796875 C 35.078125 -38.910156 35.3125 -38.96875 35.59375 -38.96875 C 35.875 -38.96875 36.128906 -38.851562 36.359375 -38.625 C 36.585938 -38.40625 36.703125 -38.125 36.703125 -37.78125 L 36.703125 -28.578125 C 36.703125 -27.890625 36.550781 -27.414062 36.25 -27.15625 C 35.945312 -26.894531 35.753906 -26.742188 35.671875 -26.703125 C 35.179688 -26.328125 34.921875 -26.140625 34.890625 -26.140625 L 24.9375 -19.890625 L 34.890625 -13.640625 C 35.035156 -13.640625 35.304688 -13.457031 35.703125 -13.09375 C 36.097656 -12.738281 36.316406 -12.503906 36.359375 -12.390625 C 36.585938 -11.890625 36.703125 -11.488281 36.703125 -11.1875 L 36.703125 -1.984375 C 36.703125 -1.648438 36.585938 -1.367188 36.359375 -1.140625 C 36.128906 -0.910156 35.875 -0.796875 35.59375 -0.796875 C 35.3125 -0.796875 35.078125 -0.851562 34.890625 -0.96875 L 11.015625 -16.3125 C 9.921875 -17.03125 9.375 -17.820312 9.375 -18.6875 Z M 9.375 -18.6875 "/></g></g></g><g fill="#f97316" fill-opacity="1"><g transform="translate(91.243463, 204.610332)"><g><path d="M 8.6875 -39.765625 L 29.9375 -39.765625 C 35.3125 -39.765625 39.570312 -38.457031 42.71875 -35.84375 C 45.863281 -33.226562 47.4375 -29.875 47.4375 -25.78125 C 47.4375 -21.695312 46.109375 -18.453125 43.453125 -16.046875 C 40.804688 -13.640625 36.300781 -12.4375 29.9375 -12.4375 L 22.4375 -12.4375 L 22.4375 -1.53125 C 22.4375 -1.113281 22.285156 -0.753906 21.984375 -0.453125 C 21.679688 -0.148438 21.320312 0 20.90625 0 L 8.6875 0 C 8.269531 0 7.910156 -0.148438 7.609375 -0.453125 C 7.304688 -0.753906 7.15625 -1.113281 7.15625 -1.53125 L 7.15625 -38.234375 C 7.15625 -38.648438 7.304688 -39.007812 7.609375 -39.3125 C 7.910156 -39.613281 8.269531 -39.765625 8.6875 -39.765625 Z M 22.5 -29.203125 L 22.5 -22.953125 L 29.71875 -22.953125 C 30.582031 -22.953125 31.289062 -23.21875 31.84375 -23.75 C 32.394531 -24.28125 32.671875 -25.019531 32.671875 -25.96875 C 32.671875 -26.914062 32.40625 -27.691406 31.875 -28.296875 C 31.34375 -28.898438 30.625 -29.203125 29.71875 -29.203125 Z M 22.5 -29.203125 "/></g></g></g><g fill="#f97316" fill-opacity="1"><g transform="translate(139.528828, 204.610332)"><g><path d="M 47.609375 -1.984375 C 47.765625 -1.753906 47.84375 -1.488281 47.84375 -1.1875 C 47.84375 -0.882812 47.71875 -0.609375 47.46875 -0.359375 C 47.21875 -0.117188 46.925781 0 46.59375 0 L 31.921875 0 C 31.054688 0 30.378906 -0.300781 29.890625 -0.90625 L 20 -13.125 L 20 -1.53125 C 20 -1.113281 19.847656 -0.753906 19.546875 -0.453125 C 19.242188 -0.148438 18.882812 0 18.46875 0 L 6.765625 0 C 6.347656 0 5.988281 -0.148438 5.6875 -0.453125 C 5.382812 -0.753906 5.234375 -1.113281 5.234375 -1.53125 L 5.234375 -38.234375 C 5.234375 -38.648438 5.382812 -39.007812 5.6875 -39.3125 C 5.988281 -39.613281 6.347656 -39.765625 6.765625 -39.765625 L 18.46875 -39.765625 C 18.882812 -39.765625 19.242188 -39.613281 19.546875 -39.3125 C 19.847656 -39.007812 20 -38.648438 20 -38.234375 L 20 -27.546875 L 28.96875 -38.796875 C 29.539062 -39.441406 30.242188 -39.765625 31.078125 -39.765625 L 44.765625 -39.765625 C 45.109375 -39.765625 45.398438 -39.640625 45.640625 -39.390625 C 45.890625 -39.148438 46.015625 -38.867188 46.015625 -38.546875 C 46.015625 -38.222656 45.921875 -37.945312 45.734375 -37.71875 L 32.265625 -21.3125 Z M 47.609375 -1.984375 "/></g></g></g><g fill="#f97316" fill-opacity="1"><g transform="translate(187.814193, 204.610332)"><g/></g></g><g fill="#f97316" fill-opacity="1"><g transform="translate(236.099558, 204.610332)"><g><path d="M 30.84375 -44.65625 L 38.96875 -44.65625 C 39.3125 -44.65625 39.601562 -44.53125 39.84375 -44.28125 C 40.09375 -44.039062 40.21875 -43.796875 40.21875 -43.546875 C 40.21875 -43.296875 40.179688 -43.078125 40.109375 -42.890625 L 19.765625 3.0625 C 19.316406 4.195312 18.484375 4.765625 17.265625 4.765625 L 9.3125 4.765625 C 8.976562 4.765625 8.6875 4.640625 8.4375 4.390625 C 8.1875 4.148438 8.0625 3.90625 8.0625 3.65625 C 8.0625 3.414062 8.101562 3.203125 8.1875 3.015625 L 28.34375 -42.953125 C 28.757812 -44.085938 29.59375 -44.65625 30.84375 -44.65625 Z M 30.84375 -44.65625 "/></g></g></g><g fill="#f97316" fill-opacity="1"><g transform="translate(284.384923, 204.610332)"><g><path d="M 38.96875 -21.078125 L 38.96875 -18.6875 C 38.96875 -17.820312 38.421875 -17.03125 37.328125 -16.3125 L 13.46875 -0.96875 C 13.28125 -0.851562 13.039062 -0.796875 12.75 -0.796875 C 12.46875 -0.796875 12.210938 -0.910156 11.984375 -1.140625 C 11.753906 -1.367188 11.640625 -1.648438 11.640625 -1.984375 L 11.640625 -11.1875 C 11.640625 -11.875 11.789062 -12.347656 12.09375 -12.609375 C 12.40625 -12.878906 12.597656 -13.03125 12.671875 -13.0625 C 13.160156 -13.445312 13.425781 -13.640625 13.46875 -13.640625 L 23.40625 -19.890625 L 13.46875 -26.140625 C 13.3125 -26.140625 13.035156 -26.316406 12.640625 -26.671875 C 12.242188 -27.035156 12.007812 -27.273438 11.9375 -27.390625 C 11.738281 -27.878906 11.640625 -28.273438 11.640625 -28.578125 L 11.640625 -37.78125 C 11.640625 -38.125 11.753906 -38.40625 11.984375 -38.625 C 12.210938 -38.851562 12.46875 -38.96875 12.75 -38.96875 C 13.039062 -38.96875 13.28125 -38.910156 13.46875 -38.796875 L 37.328125 -23.46875 C 38.421875 -22.75 38.96875 -21.953125 38.96875 -21.078125 Z M 38.96875 -21.078125 "/></g></g></g><g clip-path="url(#04ac2137f1)"><g clip-path="url(#188484591d)"><path fill="#ffffff" d="M 62.519531 88.835938 L 73.441406 88.835938 L 73.441406 99.757812 L 62.519531 99.757812 Z M 62.519531 88.835938 " fill-opacity="1" fill-rule="nonzero"/></g></g><g clip-path="url(#13e9cda92e)"><g clip-path="url(#e7afc2bc84)"><path fill="#ffffff" d="M 76.800781 88.835938 L 87.722656 88.835938 L 87.722656 99.757812 L 76.800781 99.757812 Z M 76.800781 88.835938 " fill-opacity="1" fill-rule="nonzero"/></g></g></svg>
